<?xml version="1.0" standalone="no"?>
<svg xmlns="http://www.w3.org/2000/svg" viewBox="0 0 183.48 29" width="183.48" height="29"><g fill="#c700ff" color="#c700ff" transform="translate(0, 0) scale(0.29)"><svg width="100.0" height="100.0" x="0.0" y="0.0" viewBox="0 0 100 100"><path fill="currentColor" d="M50,5C25.147,5,5,25.147,5,50c0,24.853,20.147,45,45,45s45-20.147,45-45C95,25.147,74.853,5,50,5z M50,83.75  c-18.64,0-33.75-15.11-33.75-33.75c0-18.64,15.11-33.75,33.75-33.75S83.75,31.36,83.75,50C83.75,68.64,68.64,83.75,50,83.75z"></path><g><path fill="currentColor" d="M48.593,68c-1.694,0-3.228-0.874-3.888-2.441l-7.885-18.657L34,51.904C33.256,53.243,31.844,54,30.312,54   h-5.625c-2.33,0-4.219-1.67-4.219-4s1.889-4,4.219-4h3.143l5.826-10.596c0.785-1.411,2.303-2.31,3.917-2.218   c1.612,0.088,3.033,1.06,3.66,2.548l7.135,16.932L57.3,28.838c0.621-1.658,2.262-2.783,3.983-2.741   c1.771,0.014,3.345,1.24,3.94,2.908L71.254,46h4.058c2.33,0,4.219,1.67,4.219,4s-1.889,4-4.219,4h-7.031   c-1.783,0-3.373-1.011-3.973-2.691l-3.155-8.779l-8.609,22.846C51.937,66.994,50.405,68,48.678,68C48.649,68,48.621,68,48.593,68z"></path></g></svg></g><line x1="41" y1="1" x2="41" y2="28" stroke="#c700ff" stroke-linecap="round"></line><path fill="#c700ff" fill-rule="nonzero" d="M9.70 11.42L9.70 11.42L12.79 11.42Q12.79 14.69 11.16 16.44Q9.53 18.19 6.55 18.19L6.55 18.19Q0 18.19 0 10.49L0 10.49L0 9.05Q0 2.98 3.36 1.44L3.36 1.44Q4.68 0.82 6.55 0.82L6.55 0.82Q9.29 0.82 11.00 2.32Q12.72 3.82 12.72 6.65L12.72 6.65L9.60 6.65Q9.34 5.23 8.66 4.51Q7.99 3.79 6.55 3.79L6.55 3.79Q4.87 3.79 4.06 4.85L4.06 4.85Q3.48 5.59 3.38 7.39L3.38 7.39Q3.34 7.97 3.34 8.95L3.34 8.95L3.34 10.44Q3.34 13.20 4.10 14.21L4.10 14.21Q4.90 15.22 6.56 15.22Q8.23 15.22 8.87 14.29Q9.50 13.37 9.70 11.42ZM22.66 4.39L22.66 4.39L21.79 7.46Q21.43 7.32 20.98 7.32L20.98 7.32Q19.78 7.32 18.02 8.35L18.02 8.35L18.02 18.05L14.90 18.05L14.90 4.34L17.23 4.34L17.95 5.54L21.26 4.18Q21.50 4.15 21.91 4.15Q22.32 4.15 22.66 4.39ZM31.46 4.34L34.75 4.34L29.54 19.58Q29.18 20.62 28.61 21.19L28.61 21.19Q27.65 22.15 25.92 22.15L25.92 22.15L24.46 22.15L24.46 19.34L25.42 19.34Q26.09 19.34 26.41 19.12Q26.74 18.89 26.98 18.22L26.98 18.22L27.22 17.54L23.09 4.34L26.38 4.34L28.82 13.87L31.46 4.34ZM47.54 10.82L47.54 10.82Q47.54 16.18 44.78 17.66L44.78 17.66Q43.66 18.26 42.02 18.26L42.02 18.26L39.72 16.78L39.72 22.13L36.60 22.13L36.60 4.44L42.74 4.44Q45.53 4.44 46.54 6.01Q47.54 7.58 47.54 10.82ZM44.42 11.30L44.42 11.30Q44.42 7.25 41.83 7.25L41.83 7.25L39.72 7.25L39.72 13.61L41.83 14.98Q43.22 14.98 43.82 14.10Q44.42 13.22 44.42 11.30ZM55.90 15.41L55.90 18.05L53.95 18.05Q52.18 18.05 51.25 16.99Q50.33 15.94 50.33 14.47L50.33 14.47L50.33 7.27L49.01 7.27L49.01 4.90L50.33 4.90L50.33 2.21L53.45 2.21L53.45 4.90L55.66 4.90L55.66 7.27L53.45 7.27L53.45 14.28Q53.45 15.41 54.53 15.41L54.53 15.41L55.90 15.41ZM65.90 11.86L65.90 11.86L65.90 10.61Q65.90 8.83 65.39 7.90Q64.87 6.96 63.24 6.96L63.24 6.96Q60.60 6.96 60.60 10.51L60.60 10.51L60.60 11.76Q60.60 15.58 63.24 15.58L63.24 15.58Q64.94 15.58 65.47 14.30L65.47 14.30Q65.90 13.30 65.90 11.86ZM69.02 11.14L69.02 11.14Q69.02 15.58 67.34 17.09L67.34 17.09Q65.93 18.38 63.24 18.38L63.24 18.38Q59.81 18.38 58.61 16.37L58.61 16.37Q57.48 14.52 57.48 11.14L57.48 11.14Q57.48 7.97 58.61 6.17L58.61 6.17Q59.86 4.15 63.16 4.15Q66.46 4.15 67.74 5.92Q69.02 7.68 69.02 11.14ZM84.14 13.13L84.14 13.13Q84.14 15.50 82.86 16.78Q81.58 18.05 79.27 18.05L79.27 18.05L76.97 18.05Q74.14 18.05 72.95 17.06Q71.76 16.08 71.76 13.66L71.76 13.66L71.76 0.96L78.98 0.96Q81.43 0.96 82.67 2.18Q83.90 3.41 83.90 5.64L83.90 5.64Q83.90 6.94 83.24 7.85Q82.58 8.76 81.79 9.14L81.79 9.14Q84.14 10.25 84.14 13.13ZM75.10 7.63L78.72 7.63Q80.57 7.63 80.57 5.78Q80.57 3.94 78.72 3.94L78.72 3.94L75.10 3.94L75.10 7.63ZM80.81 12.96L80.81 12.96Q80.81 11.81 80.40 11.22Q79.99 10.63 78.94 10.63L78.94 10.63L75.10 10.63L75.10 13.32Q75.10 14.30 75.59 14.69Q76.08 15.07 77.21 15.07L77.21 15.07L78.94 15.07Q80.81 15.07 80.81 12.96ZM94.73 11.86L94.73 11.86L94.73 10.61Q94.73 8.83 94.21 7.90Q93.70 6.96 92.06 6.96L92.06 6.96Q89.42 6.96 89.42 10.51L89.42 10.51L89.42 11.76Q89.42 15.58 92.06 15.58L92.06 15.58Q93.77 15.58 94.30 14.30L94.30 14.30Q94.73 13.30 94.73 11.86ZM97.85 11.14L97.85 11.14Q97.85 15.58 96.17 17.09L96.17 17.09Q94.75 18.38 92.06 18.38L92.06 18.38Q88.63 18.38 87.43 16.37L87.43 16.37Q86.30 14.52 86.30 11.14L86.30 11.14Q86.30 7.97 87.43 6.17L87.43 6.17Q88.68 4.15 91.98 4.15Q95.28 4.15 96.56 5.92Q97.85 7.68 97.85 11.14ZM109.78 4.25L109.78 18.05L107.69 18.05L106.73 16.39L103.39 18.19Q100.61 18.19 99.65 16.18L99.65 16.18Q99.17 15.19 98.99 14.05Q98.81 12.91 98.81 11.68Q98.81 10.44 98.83 9.85Q98.86 9.26 98.95 8.48Q99.05 7.70 99.23 7.18Q99.41 6.65 99.74 6.08Q100.08 5.52 100.56 5.18L100.56 5.18Q101.64 4.44 103.37 4.44L103.37 4.44L106.66 4.44L109.78 4.25ZM104.28 14.90L106.66 13.68L106.66 7.25L104.28 7.25Q102.96 7.25 102.44 8.26Q101.93 9.26 101.93 11.27Q101.93 13.27 102.42 14.09Q102.91 14.90 104.28 14.90L104.28 14.90ZM120.43 4.39L120.43 4.39L119.57 7.46Q119.21 7.32 118.75 7.32L118.75 7.32Q117.55 7.32 115.80 8.35L115.80 8.35L115.80 18.05L112.68 18.05L112.68 4.34L115.01 4.34L115.73 5.54L119.04 4.18Q119.28 4.15 119.69 4.15Q120.10 4.15 120.43 4.39ZM132.48 0L132.48 18.05L130.39 18.05L129.43 16.39L126.10 18.19Q123.31 18.19 122.35 16.18L122.35 16.18Q121.87 15.19 121.69 14.05Q121.51 12.91 121.51 11.68Q121.51 10.44 121.54 9.85Q121.56 9.26 121.66 8.48Q121.75 7.70 121.93 7.18Q122.11 6.65 122.45 6.08Q122.78 5.52 123.26 5.18L123.26 5.18Q124.34 4.44 126.07 4.44L126.07 4.44L129.36 4.44L129.36 0L132.48 0ZM126.98 14.90L129.36 13.68L129.36 7.25L126.98 7.25Q125.66 7.25 125.15 8.26Q124.63 9.26 124.63 11.27Q124.63 13.27 125.12 14.09Q125.62 14.90 126.98 14.90L126.98 14.90Z" transform="translate(51, 5.476)"></path></svg>